<svg width="9" height="9" viewBox="0 0 9 9" fill="none" xmlns="http://www.w3.org/2000/svg">
    <path d="M7.11599 8.59101L4.26699 5.832L1.418 8.59101C1.105 8.89501 0.592003 8.89501 0.279003 8.59101C-0.0349972 8.28801 -0.0349972 7.79101 0.279003 7.48801L3.128 4.728L0.279003 1.96799C-0.0349972 1.66399 -0.0349972 1.16702 0.279003 0.864017C0.592003 0.560017 1.105 0.560017 1.418 0.864017L4.26699 3.624L7.11599 0.864017C7.42899 0.560017 7.94199 0.560017 8.25599 0.864017C8.56899 1.16702 8.56899 1.66399 8.25599 1.96799L5.40699 4.728L8.25599 7.48801C8.56899 7.79101 8.56899 8.28801 8.25599 8.59101C7.94199 8.89501 7.42899 8.89501 7.11599 8.59101Z" fill="#ABB5C3"/>
</svg>
