<svg width="14" height="15" viewBox="0 0 14 15" fill="none" xmlns="http://www.w3.org/2000/svg">
    <path d="M12.892 0.965899C12.502 0.560999 11.872 0.560999 11.482 0.965899L6.59299 6.0324L1.703 0.9555C1.313 0.5506 0.682994 0.5506 0.291994 0.9555C-0.0970058 1.3604 -0.0970058 2.0145 0.291994 2.4194L5.18302 7.4963L0.291994 12.5733C-0.0970058 12.9782 -0.0970058 13.6322 0.291994 14.0371C0.682994 14.4421 1.313 14.4421 1.703 14.0371L6.59299 8.9602L11.482 14.0371C11.872 14.4421 12.502 14.4421 12.892 14.0371C13.282 13.6322 13.282 12.9782 12.892 12.5733L8.00202 7.4963L12.892 2.4194C13.272 2.0249 13.272 1.3604 12.892 0.965899Z" fill="#C2CFE0"/>
</svg>
